<?xml version="1.0"?>
<svg xmlns="http://www.w3.org/2000/svg" viewBox="0 0 50 50">
    <path d="M 25 2.0019531 C 24.284625 2.0019531 23.570141 2.1805625 22.931641 2.5390625 L 6.0898438 12.003906 C 4.8018437 12.727906 4 14.081109 4 15.537109 L 4 34.464844 C 4 35.919844 4.8008437 37.272094 6.0898438 37.996094 L 22.931641 47.460938 C 23.569641 47.818937 24.285 47.998047 25 47.998047 C 25.715 47.998047 26.430359 47.819937 27.068359 47.460938 L 43.910156 37.998047 C 45.199156 37.272047 46 35.917891 46 34.462891 L 46 15.537109 C 46 14.081109 45.198156 12.727906 43.910156 12.003906 L 27.068359 2.5390625 C 26.430359 2.1805625 25.715375 2.0019531 25 2.0019531 z M 25 13 C 28.78 13 32.275969 14.754234 34.542969 17.740234 L 30.162109 20.277344 C 28.844109 18.837344 26.973 18 25 18 C 21.14 18 18 21.14 18 25 C 18 28.86 21.14 32 25 32 C 26.973 32 28.844109 31.162656 30.162109 29.722656 L 34.542969 32.259766 C 32.275969 35.245766 28.78 37 25 37 C 18.383 37 13 31.617 13 25 C 13 18.383 18.383 13 25 13 z M 35 20 L 37 20 L 37 22 L 39 22 L 39 20 L 41 20 L 41 22 L 43 22 L 43 24 L 41 24 L 41 26 L 43 26 L 43 28 L 41 28 L 41 30 L 39 30 L 39 28 L 37 28 L 37 30 L 35 30 L 35 28 L 33 28 L 33 26 L 35 26 L 35 24 L 33 24 L 33 22 L 35 22 L 35 20 z M 37 24 L 37 26 L 39 26 L 39 24 L 37 24 z"/>
</svg>
