<?xml version="1.0"?>
<svg xmlns="http://www.w3.org/2000/svg" width="26" height="26" viewBox="0 0 26 26">
    <path d="M 4.875 0 C 2.182 0 0 2.182 0 4.875 L 0 21.125 C 0 23.818 2.182 26 4.875 26 L 21.125 26 C 23.818 26 26 23.818 26 21.125 L 26 4.875 C 26 2.182 23.818 0 21.125 0 L 4.875 0 z M 6.625 9.8125 C 7.413 9.8125 8.01025 9.98775 8.40625 10.34375 C 8.77425 10.66175 8.96875 11.15975 8.96875 11.71875 C 8.96975 12.29175 8.80275 12.74975 8.46875 13.09375 C 8.04275 13.54675 7.35925 13.8125 6.53125 13.8125 C 6.36225 13.8125 6.19425 13.80425 6.03125 13.78125 L 6.03125 15.9375 C 6.03125 16.0065 5.97525 16.0625 5.90625 16.0625 L 5.125 16.0625 C 5.057 16.0625 5 16.0065 5 15.9375 L 5 10.0625 C 5 10.0005 5.03475 9.9475 5.09375 9.9375 C 5.57775 9.8575 6.084 9.8125 6.625 9.8125 z M 18.625 9.8125 C 19.414 9.8125 20.01125 9.98775 20.40625 10.34375 C 20.77525 10.66175 20.96875 11.15975 20.96875 11.71875 C 20.96975 12.29075 20.80275 12.74975 20.46875 13.09375 C 20.04375 13.54675 19.35925 13.8125 18.53125 13.8125 C 18.36325 13.8125 18.19325 13.80425 18.03125 13.78125 L 18.03125 15.9375 C 18.03125 16.0065 17.97425 16.0625 17.90625 16.0625 L 17.125 16.0625 C 17.056 16.0625 17 16.0065 17 15.9375 L 17 10.0625 C 17 10.0005 17.03375 9.9475 17.09375 9.9375 C 17.57775 9.8575 18.084 9.8125 18.625 9.8125 z M 10.09375 9.9375 L 10.875 9.9375 C 10.944 9.9375 11 9.9935 11 10.0625 L 11 12.96875 L 14 12.96875 L 14 10.0625 C 14 9.9935 14.056 9.9375 14.125 9.9375 L 14.90625 9.9375 C 14.97425 9.9375 15.03125 9.9935 15.03125 10.0625 L 15.03125 15.9375 C 15.03125 16.0065 14.97425 16.0625 14.90625 16.0625 L 14.125 16.0625 C 14.056 16.0625 14 16.0065 14 15.9375 L 14 14.03125 L 11 14.03125 L 11 15.9375 C 11 16.0065 10.944 16.0625 10.875 16.0625 L 10.09375 16.0625 C 10.02575 16.0625 9.96875 16.0065 9.96875 15.9375 L 9.96875 10.0625 C 9.96875 9.9935 10.02575 9.9375 10.09375 9.9375 z M 6.65625 10.6875 C 6.41025 10.6875 6.17825 10.69475 6.03125 10.71875 L 6.03125 12.875 C 6.17025 12.901 6.3515 12.9375 6.5625 12.9375 C 7.4625 12.9375 7.9375 12.506 7.9375 11.75 C 7.9375 10.826 7.14425 10.6875 6.65625 10.6875 z M 18.65625 10.6875 C 18.40925 10.6875 18.17825 10.69475 18.03125 10.71875 L 18.03125 12.875 C 18.17025 12.901 18.3515 12.9375 18.5625 12.9375 C 19.4625 12.9375 19.9375 12.506 19.9375 11.75 C 19.9375 10.826 19.14325 10.6875 18.65625 10.6875 z"/>
</svg>
